<?xml version="1.0" standalone="no"?>
<!DOCTYPE svg PUBLIC "-//W3C//DTD SVG 20010904//EN"
 "http://www.w3.org/TR/2001/REC-SVG-20010904/DTD/svg10.dtd">
<svg version="1.0" xmlns="http://www.w3.org/2000/svg"
 width="5120.000000pt" height="2560.000000pt" viewBox="0 0 5120.000000 2560.000000"
 preserveAspectRatio="xMidYMid meet">

<g transform="translate(0.000000,2560.000000) scale(0.100000,-0.100000)"
fill="#000000" stroke="none">
<path d="M9790 17004 c-30 -20 -68 -48 -83 -62 -43 -41 -96 -125 -119 -190
l-20 -57 2 -3904 c1 -3831 2 -3905 21 -3966 25 -82 89 -176 152 -226 89 -71
86 -70 300 -67 l193 3 3380 1930 c3746 2140 3458 1967 3530 2118 62 130 61
264 -1 395 -71 149 117 34 -2608 1592 -1352 773 -2482 1418 -2510 1434 -29 15
-54 31 -57 35 -3 4 -397 231 -875 504 l-870 497 -190 0 -190 0 -55 -36z m896
-1323 c82 -47 636 -363 1232 -703 595 -340 1085 -618 1088 -618 3 0 622 -352
1375 -782 1107 -631 1369 -785 1367 -800 -2 -13 -778 -461 -2603 -1504 -1430
-818 -2608 -1489 -2618 -1491 -16 -5 -17 131 -16 2923 1 1611 4 2960 6 2997 3
37 8 67 12 65 4 -2 75 -41 157 -87z"/>
<path d="M19525 15063 c-30 -79 -1213 -3159 -1259 -3278 l-43 -110 240 -3
c132 -1 241 -1 243 1 2 2 87 236 190 520 l187 517 720 -2 720 -3 197 -515 197
-515 261 -3 261 -2 -93 227 c-172 422 -524 1282 -919 2248 l-393 960 -245 3
-246 2 -18 -47z m344 -598 c50 -148 184 -520 299 -825 l209 -555 -575 -3
c-316 -1 -577 0 -580 3 -2 2 86 246 196 542 224 601 263 717 318 950 21 89 39
161 40 160 1 -1 43 -123 93 -272z"/>
<path d="M24420 14870 l0 -240 210 0 210 0 0 240 0 240 -210 0 -210 0 0 -240z"/>
<path d="M31853 15103 c4 -7 201 -517 1028 -2663 127 -327 245 -633 263 -680
l34 -85 237 0 238 0 174 445 c95 245 243 623 328 840 157 405 335 861 654
1678 100 255 181 466 181 468 0 2 -104 3 -231 2 l-230 -3 -145 -390 c-80 -214
-212 -570 -294 -790 -577 -1552 -568 -1528 -636 -1750 l-37 -120 -12 40 c-88
283 -195 590 -586 1685 -253 707 -464 1295 -469 1308 -10 22 -10 22 -255 22
-136 0 -244 -3 -242 -7z"/>
<path d="M22756 14199 c-157 -23 -305 -82 -416 -167 -65 -49 -146 -130 -187
-187 l-22 -30 -1 173 0 172 -190 0 -190 0 0 -1245 0 -1245 210 0 209 0 4 798
c3 780 4 799 25 887 43 176 114 285 240 369 297 197 713 134 842 -127 63 -129
63 -125 67 -1069 l4 -858 210 0 209 0 0 848 c0 486 -4 896 -10 962 -28 313
-146 508 -380 625 -178 88 -415 124 -624 94z"/>
<path d="M26443 14196 c-230 -44 -413 -160 -565 -356 l-27 -35 -1 178 0 177
-185 0 -185 0 0 -1245 0 -1245 209 0 210 0 4 783 c3 661 6 794 20 859 46 230
138 369 298 453 134 70 288 91 430 59 182 -41 277 -184 299 -453 5 -64 10
-473 10 -908 l0 -793 210 0 209 0 3 823 c3 815 4 823 26 902 51 183 147 307
293 379 190 94 419 86 561 -19 60 -44 111 -113 131 -179 33 -103 37 -227 37
-1068 l0 -838 210 0 211 0 -4 948 c-3 916 -4 950 -24 1037 -61 265 -200 429
-427 506 -267 90 -579 53 -796 -94 -97 -66 -195 -163 -274 -272 -14 -19 -15
-18 -36 29 -74 174 -234 305 -435 357 -103 27 -310 34 -412 15z"/>
<path d="M30360 14204 c-14 -2 -56 -9 -95 -15 -207 -33 -400 -129 -557 -277
-200 -188 -318 -445 -359 -775 -18 -148 -7 -485 20 -610 126 -580 542 -907
1156 -907 531 0 909 254 1066 718 15 45 27 82 26 82 -1 0 -98 13 -216 30 -118
16 -217 28 -219 25 -3 -3 -20 -39 -38 -80 -116 -267 -307 -406 -579 -422 -203
-12 -389 54 -531 189 -153 145 -225 313 -259 596 l-6 52 932 0 932 0 -6 173
c-6 199 -25 320 -73 467 -123 382 -404 645 -783 731 -82 19 -350 34 -411 23z
m364 -378 c255 -86 422 -308 452 -602 l7 -64 -692 0 -691 0 0 38 c0 20 9 74
20 118 52 217 175 376 365 470 117 58 198 75 345 70 91 -3 132 -9 194 -30z"/>
<path d="M35970 14204 c-14 -2 -56 -9 -95 -15 -207 -33 -400 -129 -557 -277
-200 -188 -318 -445 -359 -775 -18 -148 -7 -485 20 -610 126 -580 542 -907
1156 -907 531 0 909 254 1066 718 15 45 27 82 26 82 -1 0 -98 13 -216 30 -118
16 -217 28 -219 25 -3 -3 -20 -39 -38 -80 -116 -267 -307 -406 -579 -422 -203
-12 -389 54 -531 189 -153 145 -225 313 -259 596 l-6 52 932 0 932 0 -6 173
c-6 199 -25 320 -73 467 -123 382 -404 645 -783 731 -82 19 -350 34 -411 23z
m364 -378 c255 -86 422 -308 452 -602 l7 -64 -692 0 -691 0 0 38 c0 20 9 74
20 118 52 217 175 376 365 470 117 58 198 75 345 70 91 -3 132 -9 194 -30z"/>
<path d="M38553 14195 c-151 -42 -234 -117 -367 -329 l-56 -89 0 191 0 192
-190 0 -190 0 0 -1245 0 -1245 210 0 210 0 0 663 c0 687 6 833 42 997 26 124
50 186 100 260 118 178 359 229 586 125 38 -18 58 -22 62 -14 4 6 38 92 75
192 l68 181 -22 17 c-27 22 -153 74 -227 94 -86 23 -237 28 -301 10z"/>
<path d="M40035 14204 c-173 -25 -309 -65 -420 -122 -99 -52 -231 -183 -277
-277 -64 -128 -73 -167 -73 -310 0 -101 4 -142 19 -185 32 -96 87 -190 146
-249 126 -128 289 -195 795 -327 365 -95 465 -133 527 -202 73 -81 88 -199 37
-307 -31 -66 -120 -155 -189 -187 -105 -50 -172 -62 -345 -62 -181 -1 -243 11
-360 69 -134 65 -246 215 -277 370 -7 33 -13 61 -13 63 -2 2 -311 -41 -383
-53 -33 -6 -33 -7 -27 -48 21 -123 92 -292 170 -402 176 -248 505 -371 945
-352 418 18 716 176 865 459 100 190 101 479 2 648 -47 81 -150 179 -234 223
-129 67 -228 99 -888 282 -186 52 -246 78 -305 131 -54 49 -80 107 -80 179 0
136 110 248 282 290 101 25 307 30 408 11 196 -37 328 -154 375 -331 8 -32 16
-59 18 -61 4 -4 398 54 404 60 9 9 -44 200 -74 266 -96 209 -283 335 -591 400
-94 20 -382 35 -457 24z"/>
<path d="M42640 14204 c-14 -2 -56 -9 -95 -15 -207 -33 -400 -129 -557 -277
-200 -188 -318 -445 -359 -775 -18 -148 -7 -485 20 -610 126 -580 542 -907
1156 -907 531 0 909 254 1066 718 15 45 27 82 26 82 -1 0 -98 13 -216 30 -118
16 -217 28 -219 25 -3 -3 -20 -39 -38 -80 -116 -267 -307 -406 -579 -422 -203
-12 -389 54 -531 189 -153 145 -225 313 -259 596 l-6 52 932 0 932 0 -6 173
c-6 199 -25 320 -73 467 -123 382 -404 645 -783 731 -82 19 -350 34 -411 23z
m364 -378 c255 -86 422 -308 452 -602 l7 -64 -692 0 -691 0 0 38 c0 20 9 74
20 118 52 217 175 376 365 470 117 58 198 75 345 70 91 -3 132 -9 194 -30z"/>
<path d="M24420 12915 l0 -1245 210 0 210 0 0 1245 0 1245 -210 0 -210 0 0
-1245z"/>
<path d="M39457 11204 c-3 -4 -3 -20 0 -37 5 -27 4 -30 -15 -25 -12 4 -23 0
-26 -7 -5 -13 41 -28 57 -18 9 5 6 82 -4 88 -3 3 -9 2 -12 -1z"/>
</g>
</svg>
